<svg width="25" height="25" viewBox="0 0 25 25" fill="none" xmlns="http://www.w3.org/2000/svg">
<path fill-rule="evenodd" clip-rule="evenodd" d="M25 23.7205L15.9895 14.71C19.0258 10.992 18.6143 5.54633 15.0536 2.32691C11.4929 -0.892509 6.03347 -0.755203 2.63914 2.63914C-0.755203 6.03347 -0.892509 11.4929 2.32691 15.0536C5.54633 18.6143 10.992 19.0258 14.71 15.9895L23.7205 25L25 23.7205ZM1.834 9.04236C1.834 5.06126 5.06132 1.83395 9.04242 1.83395C13.0235 1.83395 16.2508 5.06126 16.2508 9.04236C16.2508 13.0235 13.0235 16.2508 9.04242 16.2508C7.13063 16.2508 5.29714 15.4913 3.9453 14.1395C2.59346 12.7876 1.834 10.9542 1.834 9.04236Z" fill="#323031"/>
</svg>
