<svg width="25" height="25" viewBox="0 0 25 25" fill="none" xmlns="http://www.w3.org/2000/svg">
<path fill-rule="evenodd" clip-rule="evenodd" d="M4.38854 3.57142L3.99376 2.02678C3.68641 0.835358 2.58515 -7.03445e-05 1.32207 4.44256e-09H0V1.78571H1.32207C1.75422 1.77346 2.1366 2.05608 2.24018 2.46428L5.50863 15.3928L5.84833 16.7232C6.15812 17.9243 7.27423 18.7624 8.54756 18.7499H21.1164V16.9642H8.54756C8.11541 16.9765 7.73303 16.6939 7.62945 16.2857L7.51928 15.8392L21.1164 12.7232C22.1217 12.4959 22.9119 11.7412 23.1638 10.7678L25 3.57142H4.38854ZM21.4195 10.3392C21.3345 10.6653 21.0683 10.9172 20.7309 10.991L7.09704 14.1071L4.84768 5.35712H22.6956L21.4195 10.3392ZM4.59061 22.3214C4.59061 20.842 5.82376 19.6428 7.34493 19.6428C8.86609 19.6428 10.0992 20.842 10.0992 22.3214C10.0992 23.8007 8.86609 24.9999 7.34493 24.9999C5.82376 24.9999 4.59061 23.8007 4.59061 22.3214ZM6.42679 22.3214C6.42679 22.8145 6.83784 23.2142 7.3449 23.2142C7.85195 23.2142 8.263 22.8145 8.263 22.3214C8.263 21.8282 7.85195 21.4285 7.3449 21.4285C6.83784 21.4285 6.42679 21.8282 6.42679 22.3214ZM15.8175 21.2963C16.2438 20.2954 17.2481 19.6428 18.3621 19.6428C19.8833 19.6428 21.1164 20.842 21.1164 22.3214C21.1164 23.4047 20.4454 24.3814 19.4162 24.796C18.3869 25.2106 17.2023 24.9814 16.4145 24.2154C15.6268 23.4493 15.3912 22.2972 15.8175 21.2963ZM17.4439 22.3214C17.4439 22.8145 17.855 23.2142 18.362 23.2142C18.8691 23.2142 19.2801 22.8145 19.2801 22.3214C19.2801 21.8282 18.8691 21.4285 18.362 21.4285C17.855 21.4285 17.4439 21.8282 17.4439 22.3214Z" fill="#323031"/>
</svg>
